Results
version=1
nRows=16
nColumns=21
inDegrees=yes
endheader
time	r_shoulder_elev	r_elbow_flex	r_shoulder_elev_u	r_elbow_flex_u	TRIlong.activation	TRIlong.fiber_length	TRIlat.activation	TRIlat.fiber_length	TRImed.activation	TRImed.fiber_length	BIClong.activation	BIClong.fiber_length	BICshort.activation	BICshort.fiber_length	BRA.activation	BRA.fiber_length	DeltAnt.activation	DeltAnt.fiber_length	DeltPost.activation	DeltPost.fiber_length
      0.03000000	     -3.64320944	     18.74586125	   -119.08197337	    -40.87273551	      0.05000000	      0.14150075	      0.05000000	      0.07743595	      0.05000000	      0.07248491	      0.05251744	      0.14111473	      0.06293172	      0.14263309	      0.05265266	      0.08644003	      0.05000000	      0.16401347	      0.33102399	      0.10497487
      0.03100000	     -3.76222816	     18.70506492	   -118.96351771	    -40.73149550	      0.05059862	      0.14140946	      0.05031653	      0.07741900	      0.05031753	      0.07246801	      0.05248411	      0.14116128	      0.06275380	      0.14267028	      0.05264329	      0.08644286	      0.05000000	      0.16408296	      0.33075094	      0.10486614
      0.03200000	     -3.88110524	     18.66442471	   -118.83670748	    -40.60320218	      0.05114711	      0.14131702	      0.05060675	      0.07740157	      0.05060864	      0.07245067	      0.05244853	      0.14120784	      0.06256636	      0.14270812	      0.05263407	      0.08644568	      0.05000000	      0.16415230	      0.33048550	      0.10475740
      0.03300000	     -3.99987885	     18.62387741	   -118.70305339	    -40.48755617	      0.05162795	      0.14122423	      0.05086122	      0.07738397	      0.05086392	      0.07243315	      0.05241335	      0.14125437	      0.06238114	      0.14274632	      0.05262496	      0.08644849	      0.05000000	      0.16422154	      0.33022523	      0.10464864
      0.03400000	     -4.11853575	     18.58342649	   -118.56174042	    -40.38648901	      0.05203953	      0.14113119	      0.05107910	      0.07736621	      0.05108248	      0.07241550	      0.05237861	      0.14130086	      0.06219836	      0.14278488	      0.05261596	      0.08645129	      0.05000000	      0.16429067	      0.32997059	      0.10453987
      0.03500000	     -4.23698993	     18.54309869	   -118.40830034	    -40.30969870	      0.05236308	      0.14103822	      0.05125038	      0.07734838	      0.05125429	      0.07239781	      0.05234456	      0.14134723	      0.06201939	      0.14282389	      0.05260713	      0.08645407	      0.05000000	      0.16435962	      0.32972466	      0.10443108
      0.03600000	     -4.35531753	     18.50282287	   -118.24928174	    -40.24413811	      0.05264743	      0.14094544	      0.05140090	      0.07733059	      0.05140528	      0.07238015	      0.05231090	      0.14139352	      0.06184257	      0.14286310	      0.05259841	      0.08645685	      0.05000000	      0.16442846	      0.32948357	      0.10432229
      0.03700000	     -4.47352675	     18.46259568	   -118.08504572	    -40.18908039	      0.05289513	      0.14085286	      0.05153199	      0.07731282	      0.05153678	      0.07236254	      0.05227761	      0.14143973	      0.06166775	      0.14290249	      0.05258978	      0.08645961	      0.05000000	      0.16449719	      0.32924701	      0.10421349
      0.03800000	     -4.59148254	     18.42243883	   -117.91305392	    -40.14909063	      0.05308618	      0.14076080	      0.05163304	      0.07729517	      0.05163815	      0.07234506	      0.05224503	      0.14148579	      0.06149690	      0.14294220	      0.05258134	      0.08646235	      0.05000000	      0.16456571	      0.32901924	      0.10410470
      0.03900000	     -4.70931860	     18.38230657	   -117.73891351	    -40.11278848	      0.05325704	      0.14066899	      0.05172340	      0.07727760	      0.05172879	      0.07232765	      0.05221278	      0.14153178	      0.06132782	      0.14298203	      0.05257298	      0.08646509	      0.05000000	      0.16463412	      0.32879534	      0.10399592
      0.04000000	     -4.82700843	     18.34220376	   -117.56224496	    -40.08077264	      0.05340366	      0.14057750	      0.05180090	      0.07726012	      0.05180653	      0.07231034	      0.05218092	      0.14157768	      0.06116089	      0.14302201	      0.05256472	      0.08646781	      0.05000000	      0.16470241	      0.32857615	      0.10388715
      0.04100000	     -4.94444182	     18.30214495	   -117.38388717	    -40.05081540	      0.05487427	      0.14048448	      0.05183303	      0.07724282	      0.05183785	      0.07229322	      0.05214972	      0.14162342	      0.06099758	      0.14306221	      0.05255663	      0.08647052	      0.05000000	      0.16477049	      0.32839877	      0.10377840
      0.04200000	     -5.06174350	     18.26210845	   -117.20520092	    -40.02162489	      0.05623932	      0.14038980	      0.05185962	      0.07722564	      0.05186368	      0.07227621	      0.05211885	      0.14166909	      0.06083610	      0.14310253	      0.05254863	      0.08647321	      0.05000000	      0.16483846	      0.32822660	      0.10366966
      0.04300000	     -5.17883580	     18.22210793	   -117.02859764	    -39.98979869	      0.05736028	      0.14029404	      0.05188149	      0.07720861	      0.05188491	      0.07225934	      0.05208851	      0.14171463	      0.06067747	      0.14314300	      0.05254077	      0.08647590	      0.05000000	      0.16490625	      0.32805941	      0.10356094
      0.04400000	     -5.29582209	     18.18212639	   -116.85315642	    -39.95648019	      0.05836488	      0.14019787	      0.05190109	      0.07719164	      0.05190395	      0.07224254	      0.05205843	      0.14176011	      0.06052029	      0.14318356	      0.05253297	      0.08647857	      0.05000000	      0.16497394	      0.32789474	      0.10345223
      0.04500000	     -5.41257012	     18.14219256	   -116.68103451	    -39.91876823	      0.05915529	      0.14010175	      0.05191651	      0.07717482	      0.05191892	      0.07222588	      0.05202894	      0.14180544	      0.06036633	      0.14322430	      0.05252533	      0.08648123	      0.05000000	      0.16504143	      0.32773562	      0.10334356
